<svg width="117" height="80" viewBox="0 0 117 80" fill="none" xmlns="http://www.w3.org/2000/svg">
<path d="M16.2946 32.5C14.2946 30.1 9.12789 33.5 6.79456 35.5C6.79456 49.1 33.4201 52.8333 46.7329 53C103.533 53 112.441 42 109.795 36.5C109.795 33.3 106.461 34.5 104.795 35.5C103.995 29.5 99.1279 33 96.7946 35.5C98.7946 30.7 90.9612 30.8333 86.7946 31.5C85.5946 26.7 78.6279 29.5 75.2946 31.5C74.4946 26.7 68.2946 28.5 65.2946 30C64.0946 26.8 58.4612 28.6667 55.7946 30C58.9946 28 55.7946 24.8333 53.7946 23.5C47.7946 21.5 47.2946 23.5 43.7946 23.5C40.9946 23.5 36.9612 27.8333 35.2946 30C30.8946 22 27.4612 26.6667 26.2946 30C23.4946 28 18.4612 30.8333 16.2946 32.5Z" fill="#FCFCFC" stroke="#6D5654"/>
<path d="M36.7329 1C37.8648 2.59574 39.4496 6.42553 36.7329 8.97872C34.0163 11.5319 35.601 14.7234 36.7329 16" stroke="#E2B4B0"/>
<path d="M55.7329 1C56.8648 2.59574 58.4496 6.42553 55.7329 8.97872C53.0163 11.5319 54.601 14.7234 55.7329 16" stroke="#E2B4B0"/>
<path d="M71.7329 1C72.8648 2.59574 74.4496 6.42553 71.7329 8.97872C69.0163 11.5319 70.601 14.7234 71.7329 16" stroke="#E2B4B0"/>
<path d="M19.2025 38.2211C23.5966 41.0309 30.7983 41.1728 33.8499 40.8924" stroke="#6D5654"/>
<path d="M78.3898 44.4837C81.2559 45.1635 84.2942 43.6558 85.4551 42.8169" stroke="#6D5654"/>
<path d="M47.9414 47.3353C51.4925 49.507 56.1836 48.7947 58.0853 48.167" stroke="#6D5654"/>
<path d="M54.2946 35.9374C57.8456 38.1092 62.5368 37.3968 64.4384 36.7692" stroke="#6D5654"/>
<path d="M18.639 51V18.2727H40.6916V23.9776H25.5584V31.7759H39.557V37.4808H25.5584V45.2951H40.7555V51H18.639ZM56.1004 51.4794C53.8419 51.4794 51.8923 51.0746 50.2517 50.2649C48.6111 49.4553 47.3486 48.358 46.4644 46.973C45.5908 45.5774 45.154 44.022 45.154 42.3068C45.154 41.0284 45.4097 39.8938 45.9211 38.9031C46.4324 37.9123 47.1462 37.0014 48.0624 36.1705C48.9786 35.3288 50.0439 34.4925 51.2584 33.6616L57.6025 29.4908C58.4228 28.9687 59.0248 28.4201 59.4083 27.8448C59.7918 27.2589 59.9836 26.625 59.9836 25.9432C59.9836 25.2933 59.7226 24.6914 59.2005 24.1374C58.6785 23.5835 57.9381 23.3118 56.9793 23.3224C56.3401 23.3224 55.7861 23.4663 55.3174 23.7539C54.8486 24.0309 54.4811 24.3984 54.2147 24.8565C53.9591 25.304 53.8312 25.8047 53.8312 26.3587C53.8312 27.0405 54.023 27.733 54.4065 28.4361C54.79 29.1392 55.3014 29.8849 55.9406 30.6733C56.5798 31.451 57.2776 32.2926 58.034 33.1982L73.5507 51H66.4555L53.5116 36.5859C52.6593 35.6165 51.8071 34.6044 50.9548 33.5497C50.1132 32.4844 49.4101 31.3551 48.8454 30.1619C48.2808 28.9581 47.9985 27.6531 47.9985 26.2468C47.9985 24.6594 48.366 23.2319 49.1011 21.9641C49.8468 20.6964 50.8909 19.695 52.2332 18.9599C53.5755 18.2141 55.1416 17.8413 56.9314 17.8413C58.6785 17.8413 60.186 18.1982 61.4537 18.9119C62.7321 19.6151 63.7123 20.5526 64.3941 21.7244C65.0865 22.8857 65.4328 24.1641 65.4328 25.5597C65.4328 27.1044 65.0493 28.5053 64.2822 29.7624C63.5258 31.0089 62.4605 32.1275 61.0862 33.1183L54.4065 37.9283C53.501 38.5888 52.8298 39.2653 52.393 39.9577C51.9669 40.6396 51.7538 41.2947 51.7538 41.9233C51.7538 42.701 51.9456 43.3988 52.3291 44.0167C52.7126 44.6346 53.2559 45.1246 53.9591 45.4869C54.6622 45.8384 55.4878 46.0142 56.436 46.0142C57.5865 46.0142 58.7211 45.7532 59.8397 45.2312C60.969 44.6985 61.9917 43.9474 62.9079 42.978C63.8348 41.9979 64.5752 40.8366 65.1292 39.4943C65.6831 38.152 65.9601 36.6658 65.9601 35.0359H71.6011C71.6011 37.0387 71.3827 38.8445 70.9459 40.4531C70.5091 42.0511 69.9019 43.4467 69.1242 44.6399C68.3465 45.8224 67.4569 46.7919 66.4555 47.5483C66.1359 47.7507 65.827 47.9425 65.5287 48.1236C65.2304 48.3047 64.9214 48.4964 64.6018 48.6989C63.3873 49.679 62.029 50.3874 60.5269 50.8242C59.0354 51.261 57.5599 51.4794 56.1004 51.4794ZM94.2689 27.685C94.1411 26.396 93.5924 25.3945 92.6229 24.6808C91.6535 23.967 90.3378 23.6101 88.6759 23.6101C87.5466 23.6101 86.5931 23.7699 85.8154 24.0895C85.0377 24.3984 84.4411 24.8299 84.0256 25.3839C83.6208 25.9379 83.4184 26.5664 83.4184 27.2695C83.3971 27.8555 83.5196 28.3668 83.7859 28.8036C84.0629 29.2404 84.4411 29.6186 84.9205 29.9382C85.3999 30.2472 85.9539 30.5188 86.5825 30.7532C87.211 30.9769 87.8822 31.1687 88.596 31.3285L91.5363 32.0316C92.9639 32.3512 94.2742 32.7773 95.4674 33.31C96.6606 33.8427 97.694 34.4979 98.5676 35.2756C99.4411 36.0533 100.118 36.9695 100.597 38.0241C101.087 39.0788 101.337 40.288 101.348 41.6516C101.337 43.6545 100.826 45.391 99.814 46.8612C98.8126 48.3207 97.3637 49.4553 95.4674 50.2649C93.5818 51.0639 91.3073 51.4634 88.6439 51.4634C86.0019 51.4634 83.7007 51.0586 81.7405 50.2489C79.7909 49.4393 78.2675 48.2408 77.1702 46.6534C76.0835 45.0554 75.5136 43.0792 75.4603 40.7248H82.156C82.2305 41.8221 82.5448 42.7383 83.0988 43.4734C83.6634 44.1978 84.4145 44.7464 85.352 45.1193C86.3001 45.4815 87.3708 45.6626 88.564 45.6626C89.7359 45.6626 90.7533 45.4922 91.6162 45.1513C92.4898 44.8104 93.1663 44.3363 93.6457 43.729C94.1251 43.1218 94.3648 42.424 94.3648 41.6357C94.3648 40.9006 94.1464 40.2827 93.7096 39.782C93.2835 39.2812 92.6549 38.8551 91.8239 38.5036C91.0036 38.152 89.9969 37.8324 88.8037 37.5447L85.2401 36.6499C82.4809 35.9787 80.3023 34.9293 78.7043 33.5018C77.1063 32.0742 76.3126 30.1513 76.3232 27.733C76.3126 25.7514 76.8399 24.0202 77.9053 22.5394C78.9813 21.0586 80.4568 19.9027 82.3318 19.0717C84.2068 18.2408 86.3374 17.8253 88.7238 17.8253C91.1528 17.8253 93.2728 18.2408 95.0839 19.0717C96.9056 19.9027 98.3225 21.0586 99.3346 22.5394C100.347 24.0202 100.869 25.7354 100.901 27.685H94.2689Z" fill="#E72714"/>
<path d="M24.2372 51.9871C7.19579 47.1923 6.16297 41.9979 7.77675 40C10.4879 50.3889 42.7956 51.8762 58.6106 51.3212C101.488 50.0501 109.265 43.8254 107.782 40.462C107.702 40.3092 107.611 40.1552 107.508 40C107.618 40.1469 107.711 40.3012 107.782 40.462C110.718 46.0772 98.6141 50.0246 92.0158 51.3212C85.8189 53.985 83.3014 57.3148 82.8172 58.6467C61.5154 62.9088 40.0522 60.4226 31.9833 58.6467C32.3707 55.7165 26.9807 52.9861 24.2372 51.9871Z" fill="#E5E5E5"/>
<path d="M7.77675 40C6.16297 41.9979 7.19579 47.1923 24.2372 51.9871C26.9807 52.9861 32.3707 55.7165 31.9833 58.6467C40.0522 60.4225 61.5154 62.9088 82.8172 58.6467C83.3014 57.3148 85.8189 53.985 92.0158 51.3212C98.7936 49.9893 111.381 45.8604 107.508 40C109.929 43.2188 103.538 49.9893 58.6106 51.3212C42.7956 51.8762 10.4879 50.3889 7.77675 40Z" stroke="#6D5654"/>
<path d="M24.257 51.7169C33.7324 55.1847 59.3944 60.4774 86.2396 53.9061" stroke="#6D5654"/>
<path d="M0.758523 77V68.2727H4.2017C4.8608 68.2727 5.4233 68.3906 5.8892 68.6264C6.35795 68.8594 6.71449 69.1903 6.95881 69.6193C7.20597 70.0455 7.32955 70.5469 7.32955 71.1236C7.32955 71.7031 7.20455 72.2017 6.95455 72.6193C6.70455 73.0341 6.34233 73.3523 5.8679 73.5739C5.39631 73.7955 4.82528 73.9062 4.15483 73.9062H1.84943V72.4233H3.85653C4.20881 72.4233 4.50142 72.375 4.73438 72.2784C4.96733 72.1818 5.14063 72.0369 5.25426 71.8438C5.37074 71.6506 5.42898 71.4105 5.42898 71.1236C5.42898 70.8338 5.37074 70.5895 5.25426 70.3906C5.14063 70.1918 4.96591 70.0412 4.73011 69.9389C4.49716 69.8338 4.20313 69.7812 3.84801 69.7812H2.60369V77H0.758523ZM5.47159 73.0284L7.64062 77H5.60369L3.48153 73.0284H5.47159ZM11.4769 77.1278C10.8036 77.1278 10.2241 76.9915 9.73828 76.7188C9.25533 76.4432 8.88317 76.054 8.6218 75.5511C8.36044 75.0455 8.22976 74.4474 8.22976 73.7571C8.22976 73.0838 8.36044 72.4929 8.6218 71.9844C8.88317 71.4759 9.25107 71.0795 9.7255 70.7955C10.2028 70.5114 10.7624 70.3693 11.4045 70.3693C11.8363 70.3693 12.2383 70.4389 12.6104 70.5781C12.9854 70.7145 13.3121 70.9205 13.5906 71.196C13.8718 71.4716 14.0906 71.8182 14.2468 72.2358C14.4031 72.6506 14.4812 73.1364 14.4812 73.6932V74.1918H8.95419V73.0668H12.7724C12.7724 72.8054 12.7156 72.5739 12.6019 72.3722C12.4883 72.1705 12.3306 72.0128 12.1289 71.8991C11.93 71.7827 11.6985 71.7244 11.4343 71.7244C11.1587 71.7244 10.9144 71.7884 10.7013 71.9162C10.4911 72.0412 10.3263 72.2102 10.207 72.4233C10.0877 72.6335 10.0266 72.8679 10.0238 73.1264V74.196C10.0238 74.5199 10.0835 74.7997 10.2028 75.0355C10.3249 75.2713 10.4968 75.4531 10.7184 75.581C10.94 75.7088 11.2028 75.7727 11.5067 75.7727C11.7085 75.7727 11.8931 75.7443 12.0607 75.6875C12.2283 75.6307 12.3718 75.5455 12.4911 75.4318C12.6104 75.3182 12.7013 75.179 12.7638 75.0142L14.4428 75.125C14.3576 75.5284 14.1829 75.8807 13.9187 76.1818C13.6573 76.4801 13.3192 76.7131 12.9045 76.8807C12.4925 77.0455 12.0167 77.1278 11.4769 77.1278ZM21.1119 72.321L19.4499 72.4233C19.4215 72.2812 19.3604 72.1534 19.2667 72.0398C19.1729 71.9233 19.0494 71.831 18.896 71.7628C18.7454 71.6918 18.565 71.6562 18.3548 71.6562C18.0735 71.6562 17.8363 71.7159 17.6431 71.8352C17.4499 71.9517 17.3533 72.108 17.3533 72.304C17.3533 72.4602 17.4158 72.5923 17.5408 72.7003C17.6658 72.8082 17.8803 72.8949 18.1843 72.9602L19.369 73.1989C20.0053 73.3295 20.4798 73.5398 20.7923 73.8295C21.1048 74.1193 21.261 74.5 21.261 74.9716C21.261 75.4006 21.1346 75.777 20.8817 76.1009C20.6317 76.4247 20.288 76.6776 19.8505 76.8594C19.4158 77.0384 18.9144 77.1278 18.3462 77.1278C17.4798 77.1278 16.7894 76.9474 16.2752 76.5866C15.7638 76.223 15.4641 75.7287 15.3761 75.1037L17.1616 75.0099C17.2156 75.2741 17.3462 75.4759 17.5536 75.6151C17.761 75.7514 18.0266 75.8196 18.3505 75.8196C18.6687 75.8196 18.9244 75.7585 19.1175 75.6364C19.3136 75.5114 19.413 75.3509 19.4158 75.1548C19.413 74.9901 19.3434 74.8551 19.207 74.75C19.0707 74.642 18.8604 74.5597 18.5763 74.5028L17.4428 74.277C16.8036 74.1491 16.3278 73.9276 16.0153 73.6122C15.7056 73.2969 15.5508 72.8949 15.5508 72.4062C15.5508 71.9858 15.6644 71.6236 15.8917 71.3196C16.1218 71.0156 16.4442 70.7812 16.859 70.6165C17.2766 70.4517 17.7653 70.3693 18.3249 70.3693C19.1516 70.3693 19.8022 70.544 20.2766 70.8935C20.7539 71.2429 21.0323 71.7187 21.1119 72.321ZM25.8857 70.4545V71.8182H21.9439V70.4545H25.8857ZM22.8388 68.8864H24.6541V74.9886C24.6541 75.1562 24.6797 75.2869 24.7308 75.3807C24.782 75.4716 24.853 75.5355 24.9439 75.5724C25.0376 75.6094 25.1456 75.6278 25.2678 75.6278C25.353 75.6278 25.4382 75.6207 25.5234 75.6065C25.6087 75.5895 25.674 75.5767 25.7195 75.5682L26.005 76.919C25.9141 76.9474 25.7862 76.9801 25.6214 77.017C25.4567 77.0568 25.2564 77.081 25.0206 77.0895C24.5831 77.1065 24.1996 77.0483 23.87 76.9148C23.5433 76.7812 23.2891 76.5739 23.1072 76.2926C22.9254 76.0114 22.8359 75.6562 22.8388 75.2273V68.8864ZM28.9347 77.1236C28.517 77.1236 28.1449 77.0511 27.8182 76.9062C27.4915 76.7585 27.233 76.5412 27.0426 76.2543C26.8551 75.9645 26.7614 75.6037 26.7614 75.1719C26.7614 74.8082 26.8281 74.5028 26.9616 74.2557C27.0952 74.0085 27.277 73.8097 27.5071 73.6591C27.7372 73.5085 27.9986 73.3949 28.2912 73.3182C28.5866 73.2415 28.8963 73.1875 29.2202 73.1562C29.6009 73.1165 29.9077 73.0795 30.1406 73.0455C30.3736 73.0085 30.5426 72.9545 30.6477 72.8835C30.7528 72.8125 30.8054 72.7074 30.8054 72.5682V72.5426C30.8054 72.2727 30.7202 72.0639 30.5497 71.9162C30.3821 71.7685 30.1435 71.6946 29.8338 71.6946C29.5071 71.6946 29.2472 71.767 29.054 71.9119C28.8608 72.054 28.733 72.233 28.6705 72.4489L26.9915 72.3125C27.0767 71.9148 27.2443 71.571 27.4943 71.2812C27.7443 70.9886 28.0668 70.7642 28.4616 70.608C28.8594 70.4489 29.3196 70.3693 29.8423 70.3693C30.206 70.3693 30.554 70.4119 30.8864 70.4972C31.2216 70.5824 31.5185 70.7145 31.777 70.8935C32.0384 71.0724 32.2443 71.3026 32.3949 71.5838C32.5455 71.8622 32.6207 72.196 32.6207 72.5852V77H30.8991V76.0923H30.848C30.7429 76.2969 30.6023 76.4773 30.4261 76.6335C30.25 76.7869 30.0384 76.9077 29.7912 76.9957C29.544 77.081 29.2585 77.1236 28.9347 77.1236ZM29.4545 75.8707C29.7216 75.8707 29.9574 75.8182 30.1619 75.7131C30.3665 75.6051 30.527 75.4602 30.6435 75.2784C30.7599 75.0966 30.8182 74.8906 30.8182 74.6605V73.9659C30.7614 74.0028 30.6832 74.0369 30.5838 74.0682C30.4872 74.0966 30.3778 74.1236 30.2557 74.1491C30.1335 74.1719 30.0114 74.1932 29.8892 74.2131C29.767 74.2301 29.6562 74.2457 29.5568 74.2599C29.3438 74.2912 29.1577 74.3409 28.9986 74.4091C28.8395 74.4773 28.7159 74.5696 28.6278 74.6861C28.5398 74.7997 28.4957 74.9418 28.4957 75.1122C28.4957 75.3594 28.5852 75.5483 28.7642 75.679C28.946 75.8068 29.1761 75.8707 29.4545 75.8707ZM38.2266 74.2131V70.4545H40.0419V77H38.299V75.8111H38.2308C38.0831 76.1946 37.8374 76.5028 37.4936 76.7358C37.1527 76.9687 36.7365 77.0852 36.245 77.0852C35.8075 77.0852 35.4226 76.9858 35.0902 76.7869C34.7578 76.5881 34.4979 76.3054 34.3104 75.9389C34.1257 75.5724 34.032 75.1335 34.0291 74.6222V70.4545H35.8445V74.2983C35.8473 74.6847 35.951 74.9901 36.1555 75.2145C36.3601 75.4389 36.6342 75.5511 36.978 75.5511C37.1967 75.5511 37.4013 75.5014 37.5916 75.402C37.782 75.2997 37.9354 75.1491 38.0518 74.9503C38.1712 74.7514 38.2294 74.5057 38.2266 74.2131ZM41.494 77V70.4545H43.2539V71.5966H43.3221C43.4414 71.1903 43.6417 70.8835 43.9229 70.6761C44.2042 70.4659 44.5281 70.3608 44.8945 70.3608C44.9854 70.3608 45.0835 70.3665 45.1886 70.3778C45.2937 70.3892 45.386 70.4048 45.4656 70.4247V72.0355C45.3803 72.0099 45.2624 71.9872 45.1119 71.9673C44.9613 71.9474 44.8235 71.9375 44.6985 71.9375C44.4315 71.9375 44.1928 71.9957 43.9826 72.1122C43.7752 72.2259 43.6104 72.3849 43.4883 72.5895C43.369 72.794 43.3093 73.0298 43.3093 73.2969V77H41.494ZM48.0831 77.1236C47.6655 77.1236 47.2933 77.0511 46.9666 76.9062C46.6399 76.7585 46.3814 76.5412 46.1911 76.2543C46.0036 75.9645 45.9098 75.6037 45.9098 75.1719C45.9098 74.8082 45.9766 74.5028 46.1101 74.2557C46.2436 74.0085 46.4254 73.8097 46.6555 73.6591C46.8857 73.5085 47.147 73.3949 47.4396 73.3182C47.7351 73.2415 48.0447 73.1875 48.3686 73.1562C48.7493 73.1165 49.0561 73.0795 49.2891 73.0455C49.522 73.0085 49.6911 72.9545 49.7962 72.8835C49.9013 72.8125 49.9538 72.7074 49.9538 72.5682V72.5426C49.9538 72.2727 49.8686 72.0639 49.6982 71.9162C49.5305 71.7685 49.2919 71.6946 48.9822 71.6946C48.6555 71.6946 48.3956 71.767 48.2024 71.9119C48.0092 72.054 47.8814 72.233 47.8189 72.4489L46.1399 72.3125C46.2251 71.9148 46.3928 71.571 46.6428 71.2812C46.8928 70.9886 47.2152 70.7642 47.6101 70.608C48.0078 70.4489 48.468 70.3693 48.9908 70.3693C49.3544 70.3693 49.7024 70.4119 50.0348 70.4972C50.37 70.5824 50.6669 70.7145 50.9254 70.8935C51.1868 71.0724 51.3928 71.3026 51.5433 71.5838C51.6939 71.8622 51.7692 72.196 51.7692 72.5852V77H50.0476V76.0923H49.9964C49.8913 76.2969 49.7507 76.4773 49.5746 76.6335C49.3984 76.7869 49.1868 76.9077 48.9396 76.9957C48.6925 77.081 48.407 77.1236 48.0831 77.1236ZM48.603 75.8707C48.87 75.8707 49.1058 75.8182 49.3104 75.7131C49.5149 75.6051 49.6754 75.4602 49.7919 75.2784C49.9084 75.0966 49.9666 74.8906 49.9666 74.6605V73.9659C49.9098 74.0028 49.8317 74.0369 49.7322 74.0682C49.6357 74.0966 49.5263 74.1236 49.4041 74.1491C49.282 74.1719 49.1598 74.1932 49.0376 74.2131C48.9155 74.2301 48.8047 74.2457 48.7053 74.2599C48.4922 74.2912 48.3061 74.3409 48.147 74.4091C47.9879 74.4773 47.8643 74.5696 47.7763 74.6861C47.6882 74.7997 47.6442 74.9418 47.6442 75.1122C47.6442 75.3594 47.7337 75.5483 47.9126 75.679C48.0945 75.8068 48.3246 75.8707 48.603 75.8707ZM54.9929 73.2159V77H53.1776V70.4545H54.9077V71.6094H54.9844C55.1293 71.2287 55.3722 70.9276 55.7131 70.706C56.054 70.4815 56.4673 70.3693 56.9531 70.3693C57.4077 70.3693 57.804 70.4688 58.142 70.6676C58.4801 70.8665 58.7429 71.1506 58.9304 71.5199C59.1179 71.8864 59.2116 72.3239 59.2116 72.8324V77H57.3963V73.1562C57.3991 72.7557 57.2969 72.4432 57.0895 72.2188C56.8821 71.9915 56.5966 71.8778 56.233 71.8778C55.9886 71.8778 55.7727 71.9304 55.5852 72.0355C55.4006 72.1406 55.2557 72.294 55.1506 72.4957C55.0483 72.6946 54.9957 72.9347 54.9929 73.2159ZM64.1239 70.4545V71.8182H60.1822V70.4545H64.1239ZM61.0771 68.8864H62.8924V74.9886C62.8924 75.1562 62.918 75.2869 62.9691 75.3807C63.0202 75.4716 63.0913 75.5355 63.1822 75.5724C63.2759 75.6094 63.3839 75.6278 63.506 75.6278C63.5913 75.6278 63.6765 75.6207 63.7617 75.6065C63.8469 75.5895 63.9123 75.5767 63.9577 75.5682L64.2433 76.919C64.1523 76.9474 64.0245 76.9801 63.8597 77.017C63.695 77.0568 63.4947 77.081 63.2589 77.0895C62.8214 77.1065 62.4379 77.0483 62.1083 76.9148C61.7816 76.7812 61.5273 76.5739 61.3455 76.2926C61.1637 76.0114 61.0742 75.6562 61.0771 75.2273V68.8864ZM69.9503 77.1236C69.5327 77.1236 69.1605 77.0511 68.8338 76.9062C68.5071 76.7585 68.2486 76.5412 68.0582 76.2543C67.8707 75.9645 67.777 75.6037 67.777 75.1719C67.777 74.8082 67.8438 74.5028 67.9773 74.2557C68.1108 74.0085 68.2926 73.8097 68.5227 73.6591C68.7528 73.5085 69.0142 73.3949 69.3068 73.3182C69.6023 73.2415 69.9119 73.1875 70.2358 73.1562C70.6165 73.1165 70.9233 73.0795 71.1562 73.0455C71.3892 73.0085 71.5582 72.9545 71.6634 72.8835C71.7685 72.8125 71.821 72.7074 71.821 72.5682V72.5426C71.821 72.2727 71.7358 72.0639 71.5653 71.9162C71.3977 71.7685 71.1591 71.6946 70.8494 71.6946C70.5227 71.6946 70.2628 71.767 70.0696 71.9119C69.8764 72.054 69.7486 72.233 69.6861 72.4489L68.0071 72.3125C68.0923 71.9148 68.2599 71.571 68.5099 71.2812C68.7599 70.9886 69.0824 70.7642 69.4773 70.608C69.875 70.4489 70.3352 70.3693 70.858 70.3693C71.2216 70.3693 71.5696 70.4119 71.902 70.4972C72.2372 70.5824 72.5341 70.7145 72.7926 70.8935C73.054 71.0724 73.2599 71.3026 73.4105 71.5838C73.5611 71.8622 73.6364 72.196 73.6364 72.5852V77H71.9148V76.0923H71.8636C71.7585 76.2969 71.6179 76.4773 71.4418 76.6335C71.2656 76.7869 71.054 76.9077 70.8068 76.9957C70.5597 77.081 70.2741 77.1236 69.9503 77.1236ZM70.4702 75.8707C70.7372 75.8707 70.973 75.8182 71.1776 75.7131C71.3821 75.6051 71.5426 75.4602 71.6591 75.2784C71.7756 75.0966 71.8338 74.8906 71.8338 74.6605V73.9659C71.777 74.0028 71.6989 74.0369 71.5994 74.0682C71.5028 74.0966 71.3935 74.1236 71.2713 74.1491C71.1491 74.1719 71.027 74.1932 70.9048 74.2131C70.7827 74.2301 70.6719 74.2457 70.5724 74.2599C70.3594 74.2912 70.1733 74.3409 70.0142 74.4091C69.8551 74.4773 69.7315 74.5696 69.6435 74.6861C69.5554 74.7997 69.5114 74.9418 69.5114 75.1122C69.5114 75.3594 69.6009 75.5483 69.7798 75.679C69.9616 75.8068 70.1918 75.8707 70.4702 75.8707ZM76.8601 73.2159V77H75.0447V70.4545H76.7749V71.6094H76.8516C76.9964 71.2287 77.2393 70.9276 77.5803 70.706C77.9212 70.4815 78.3345 70.3693 78.8203 70.3693C79.2749 70.3693 79.6712 70.4688 80.0092 70.6676C80.3473 70.8665 80.6101 71.1506 80.7976 71.5199C80.9851 71.8864 81.0788 72.3239 81.0788 72.8324V77H79.2635V73.1562C79.2663 72.7557 79.1641 72.4432 78.9567 72.2188C78.7493 71.9915 78.4638 71.8778 78.1001 71.8778C77.8558 71.8778 77.6399 71.9304 77.4524 72.0355C77.2678 72.1406 77.1229 72.294 77.0178 72.4957C76.9155 72.6946 76.8629 72.9347 76.8601 73.2159ZM84.9215 77.1065C84.4244 77.1065 83.9741 76.9787 83.5707 76.723C83.1701 76.4645 82.8519 76.0852 82.6161 75.5852C82.3832 75.0824 82.2667 74.4659 82.2667 73.7358C82.2667 72.9858 82.3874 72.3622 82.6289 71.8651C82.8704 71.3651 83.1914 70.9915 83.592 70.7443C83.9954 70.4943 84.4371 70.3693 84.9173 70.3693C85.2837 70.3693 85.5891 70.4318 85.8335 70.5568C86.0806 70.679 86.2795 70.8324 86.43 71.017C86.5835 71.1989 86.6999 71.3778 86.7795 71.554H86.8349V68.2727H88.646V77H86.8562V75.9517H86.7795C86.6942 76.1335 86.5735 76.3139 86.4173 76.4929C86.2638 76.669 86.0636 76.8153 85.8164 76.9318C85.5721 77.0483 85.2738 77.1065 84.9215 77.1065ZM85.4968 75.6619C85.7894 75.6619 86.0366 75.5824 86.2383 75.4233C86.4428 75.2614 86.5991 75.0355 86.707 74.7457C86.8178 74.456 86.8732 74.1165 86.8732 73.7273C86.8732 73.3381 86.8192 73 86.7113 72.7131C86.6033 72.4261 86.4471 72.2045 86.2425 72.0483C86.038 71.892 85.7894 71.8139 85.4968 71.8139C85.1985 71.8139 84.9471 71.8949 84.7425 72.0568C84.538 72.2187 84.3832 72.4432 84.2781 72.7301C84.1729 73.017 84.1204 73.3494 84.1204 73.7273C84.1204 74.108 84.1729 74.4446 84.2781 74.7372C84.386 75.027 84.5408 75.2543 84.7425 75.419C84.9471 75.581 85.1985 75.6619 85.4968 75.6619ZM98.7369 71.0938C98.6772 70.8864 98.5934 70.7031 98.4854 70.544C98.3775 70.3821 98.2454 70.2457 98.0891 70.1349C97.9357 70.0213 97.7596 69.9347 97.5607 69.875C97.3647 69.8153 97.1474 69.7855 96.9087 69.7855C96.4627 69.7855 96.0707 69.8963 95.7326 70.1179C95.3974 70.3395 95.136 70.6619 94.9485 71.0852C94.761 71.5057 94.6673 72.0199 94.6673 72.6278C94.6673 73.2358 94.7596 73.7528 94.9442 74.179C95.1289 74.6051 95.3903 74.9304 95.7283 75.1548C96.0664 75.3764 96.4656 75.4872 96.9258 75.4872C97.3434 75.4872 97.6999 75.4134 97.9954 75.2656C98.2937 75.1151 98.521 74.9034 98.6772 74.6307C98.8363 74.358 98.9158 74.0355 98.9158 73.6634L99.2908 73.7188H97.0408V72.3295H100.693V73.429C100.693 74.196 100.531 74.8551 100.207 75.4062C99.8832 75.9545 99.4371 76.3778 98.869 76.6761C98.3008 76.9716 97.6502 77.1193 96.9173 77.1193C96.0991 77.1193 95.3803 76.9389 94.761 76.5781C94.1417 76.2145 93.6587 75.6989 93.3121 75.0312C92.9684 74.3608 92.7965 73.5653 92.7965 72.6449C92.7965 71.9375 92.8988 71.3068 93.1033 70.7528C93.3107 70.196 93.6005 69.7244 93.9727 69.3381C94.3448 68.9517 94.7781 68.6577 95.2724 68.456C95.7667 68.2543 96.3022 68.1534 96.8789 68.1534C97.3732 68.1534 97.8335 68.2259 98.2596 68.3707C98.6857 68.5128 99.0636 68.7145 99.3931 68.9759C99.7255 69.2372 99.9968 69.5483 100.207 69.9091C100.417 70.267 100.552 70.6619 100.612 71.0938H98.7369ZM102.045 77V70.4545H103.805V71.5966H103.873C103.992 71.1903 104.192 70.8835 104.474 70.6761C104.755 70.4659 105.079 70.3608 105.445 70.3608C105.536 70.3608 105.634 70.3665 105.739 70.3778C105.844 70.3892 105.937 70.4048 106.016 70.4247V72.0355C105.931 72.0099 105.813 71.9872 105.663 71.9673C105.512 71.9474 105.374 71.9375 105.249 71.9375C104.982 71.9375 104.744 71.9957 104.533 72.1122C104.326 72.2259 104.161 72.3849 104.039 72.5895C103.92 72.794 103.86 73.0298 103.86 73.2969V77H102.045ZM106.955 77V70.4545H108.77V77H106.955ZM107.867 69.6108C107.597 69.6108 107.365 69.5213 107.172 69.3423C106.982 69.1605 106.887 68.9432 106.887 68.6903C106.887 68.4403 106.982 68.2259 107.172 68.0469C107.365 67.8651 107.597 67.7741 107.867 67.7741C108.137 67.7741 108.367 67.8651 108.557 68.0469C108.75 68.2259 108.847 68.4403 108.847 68.6903C108.847 68.9432 108.75 69.1605 108.557 69.3423C108.367 69.5213 108.137 69.6108 107.867 69.6108ZM112.04 68.2727V77H110.224V68.2727H112.04ZM115.309 68.2727V77H113.494V68.2727H115.309Z" fill="#EF0000"/>
</svg>
